<svg width="28" height="28" viewBox="0 0 28 28" fill="none" xmlns="http://www.w3.org/2000/svg">
<rect width="28" height="28" rx="4" fill="#FFC002"/>
<path d="M13.5 4C9.9094 4 7 6.78799 7 10.2414C7 16.2126 13.5 24 13.5 24C13.5 24 20 16.2114 20 10.2414C20 6.78924 17.0906 4 13.5 4ZM13.5 13.6948C12.5691 13.6948 11.6763 13.339 11.0181 12.7057C10.3598 12.0723 9.99 11.2134 9.99 10.3177C9.99 9.42203 10.3598 8.56305 11.0181 7.92972C11.6763 7.29639 12.5691 6.94059 13.5 6.94059C14.4309 6.94059 15.3237 7.29639 15.9819 7.92972C16.6402 8.56305 17.01 9.42203 17.01 10.3177C17.01 11.2134 16.6402 12.0723 15.9819 12.7057C15.3237 13.339 14.4309 13.6948 13.5 13.6948Z" fill="#001F60"/>
</svg>
