<svg width="92" height="92" viewBox="0 0 92 92" fill="none" xmlns="http://www.w3.org/2000/svg">
<rect width="92" height="92" rx="10" fill="#FFC002"/>
<path d="M39.4956 17.625C37.7704 17.625 36.1159 18.3103 34.896 19.5302C33.6761 20.7501 32.9908 22.4046 32.9908 24.1298V26.2981H17.8129C16.0877 26.2981 14.4332 26.9834 13.2133 28.2033C11.9934 29.4232 11.3081 31.0777 11.3081 32.8029V67.4952C11.3081 69.2204 11.9934 70.8749 13.2133 72.0948C14.4332 73.3147 16.0877 74 17.8129 74H74.1879C75.9131 74 77.5676 73.3147 78.7875 72.0948C80.0074 70.8749 80.6927 69.2204 80.6927 67.4952V32.8029C80.6927 31.0777 80.0074 29.4232 78.7875 28.2033C77.5676 26.9834 75.9131 26.2981 74.1879 26.2981H59.01V24.1298C59.01 22.4046 58.3247 20.7501 57.1048 19.5302C55.8849 18.3103 54.2304 17.625 52.5052 17.625H39.4956ZM39.4956 21.9615H52.5052C53.0803 21.9615 53.6318 22.19 54.0384 22.5966C54.445 23.0032 54.6735 23.5547 54.6735 24.1298V26.2981H37.3273V24.1298C37.3273 23.5547 37.5558 23.0032 37.9624 22.5966C38.369 22.19 38.9205 21.9615 39.4956 21.9615ZM47.6743 51.9444L76.3562 44.299V67.4952C76.3562 68.0703 76.1277 68.6218 75.7211 69.0284C75.3145 69.435 74.763 69.6635 74.1879 69.6635H17.8129C17.2379 69.6635 16.6863 69.435 16.2797 69.0284C15.8731 68.6218 15.6446 68.0703 15.6446 67.4952V44.2947L44.3265 51.9444C45.4233 52.2364 46.5775 52.2364 47.6743 51.9444ZM17.8129 30.6346H74.1879C74.763 30.6346 75.3145 30.8631 75.7211 31.2697C76.1277 31.6763 76.3562 32.2278 76.3562 32.8029V39.8107L46.5598 47.7553C46.1933 47.8531 45.8075 47.8531 45.441 47.7553L15.6446 39.8107V32.8029C15.6446 32.2278 15.8731 31.6763 16.2797 31.2697C16.6863 30.8631 17.2379 30.6346 17.8129 30.6346Z" fill="#001F60"/>
</svg>
