<svg width="28" height="28" viewBox="0 0 28 28" fill="none" xmlns="http://www.w3.org/2000/svg">
<rect width="28" height="28" rx="4" fill="#FFC002"/>
<path d="M8.33467 4.58381L9.94972 4.09725C10.4827 3.93692 11.0559 3.97582 11.5624 4.20669C12.0688 4.43756 12.4739 4.84464 12.7021 5.35199L13.8344 7.86814C14.0309 8.30465 14.0857 8.79171 13.991 9.26092C13.8963 9.73013 13.657 10.1579 13.3066 10.4843L11.5831 12.0889C11.3522 12.3081 11.5273 13.1621 12.3711 14.6234C13.2157 16.0856 13.8685 16.6638 14.1695 16.5739L16.4274 15.884C16.8851 15.7441 17.3751 15.7508 17.8288 15.9032C18.2824 16.0556 18.677 16.3461 18.9572 16.7338L20.5664 18.9625C20.8914 19.4126 21.0419 19.9652 20.9899 20.5178C20.9379 21.0704 20.687 21.5853 20.2837 21.9669L19.0397 23.1442C18.6381 23.5242 18.1428 23.791 17.6044 23.9173C17.0659 24.0436 16.5036 24.025 15.9747 23.8632C13.3683 23.0659 10.9544 20.6997 8.7007 16.798C6.44196 12.8904 5.58899 9.59446 6.18349 6.90167C6.30339 6.35908 6.56594 5.85825 6.94407 5.45083C7.3222 5.0434 7.80223 4.74411 8.33467 4.58381Z" fill="#001F60"/>
</svg>
