<svg width="28" height="28" viewBox="0 0 28 28" fill="none" xmlns="http://www.w3.org/2000/svg">
<rect width="28" height="28" rx="4" fill="#FFC002"/>
<path d="M6.8 7H21.2C22.19 7 22.991 7.7875 22.991 8.75L23 19.25C23 20.2125 22.19 21 21.2 21H6.8C5.81 21 5 20.2125 5 19.25V8.75C5 7.7875 5.81 7 6.8 7ZM7.16 10.7188L13.523 14.5863C13.811 14.7613 14.189 14.7613 14.477 14.5863L20.84 10.7188C20.9302 10.6695 21.0093 10.603 21.0723 10.5231C21.1353 10.4433 21.181 10.3519 21.2067 10.2544C21.2323 10.157 21.2373 10.0554 21.2215 9.95602C21.2056 9.85659 21.1691 9.76134 21.1142 9.67601C21.0594 9.59069 20.9873 9.51707 20.9023 9.45962C20.8174 9.40217 20.7213 9.36207 20.62 9.34176C20.5186 9.32145 20.414 9.32135 20.3126 9.34145C20.2112 9.36156 20.1151 9.40147 20.03 9.45875L14 13.125L7.97 9.45875C7.88492 9.40147 7.78876 9.36156 7.68736 9.34145C7.58595 9.32135 7.48141 9.32145 7.38005 9.34176C7.27868 9.36207 7.18262 9.40217 7.09765 9.45962C7.01269 9.51707 6.94061 9.59069 6.88575 9.67601C6.8309 9.76134 6.79443 9.85659 6.77854 9.95602C6.76265 10.0554 6.76768 10.157 6.79332 10.2544C6.81896 10.3519 6.86467 10.4433 6.9277 10.5231C6.99073 10.603 7.06975 10.6695 7.16 10.7188Z" fill="#001F60"/>
</svg>
